REM DIRINDEX 1\8,1\2\11,1\3\12,1\3\14,1\5\15,1\5\16,1\6\17,1\6\18,1\4\19,1\4\20,1\4\21,1\4\22,1\7\23,1\7\24,1\7\25,1\2\9\26,1\2\9\27,1\2\10\28,1\2\10\29,1\2\10\30,1\2\10\31,1\2\10\32,1\3\13\33,1\3\13\34,1\3\13\35
REM DIRNAME cjc123,folder01,folder02,folder03,folder04,folder05,folder06,folder07,folder08,folder09,folder10,folder11,folder12,folder13,folder14,folder15,folder16,folder17,folder18,folder19,folder20,folder21,folder22,folder23,folder24,folder25,folder26,folder27,folder28,folder29,folder30,folder31,folder32,folder33,folder34
TITLE ""
FILE "2-36 036_UNIT3_SET5.mp3" MP3
  TRACK 01 AUDIO
    TITLE "11:cjc123_4660"
    INDEX 01 00:00:00
  TRACK 02 AUDIO
    TITLE "0:"
    INDEX 01 00:02:53
  TRACK 03 AUDIO
    TITLE "28:cjc123_4661"
    INDEX 01 00:03:35
  TRACK 04 AUDIO
    TITLE "0:"
    INDEX 01 00:04:64
  TRACK 05 AUDIO
    TITLE "29:cjc123_4662"
    INDEX 01 00:04:70
  TRACK 06 AUDIO
    TITLE "0:"
    INDEX 01 00:06:08
  TRACK 07 AUDIO
    TITLE "30:cjc123_4663"
    INDEX 01 00:06:12
  TRACK 08 AUDIO
    TITLE "0:"
    INDEX 01 00:07:29
  TRACK 09 AUDIO
    TITLE "31:cjc123_4664"
    INDEX 01 00:08:01
  TRACK 10 AUDIO
    TITLE "0:"
    INDEX 01 00:12:07
  TRACK 11 AUDIO
    TITLE "32:cjc123_4665"
    INDEX 01 00:12:48
  TRACK 12 AUDIO
    TITLE "0:"
    INDEX 01 00:17:49
  TRACK 13 AUDIO
    TITLE "28:cjc123_4666"
    INDEX 01 00:18:27
  TRACK 14 AUDIO
    TITLE "0:"
    INDEX 01 00:19:40
  TRACK 15 AUDIO
    TITLE "29:cjc123_4667"
    INDEX 01 00:19:67
  TRACK 16 AUDIO
    TITLE "0:"
    INDEX 01 00:21:04
  TRACK 17 AUDIO
    TITLE "30:cjc123_4668"
    INDEX 01 00:21:19
  TRACK 18 AUDIO
    TITLE "0:"
    INDEX 01 00:22:46
  TRACK 19 AUDIO
    TITLE "31:cjc123_4669"
    INDEX 01 00:23:20
  TRACK 20 AUDIO
    TITLE "0:"
    INDEX 01 00:27:59
  TRACK 21 AUDIO
    TITLE "32:cjc123_4670"
    INDEX 01 00:28:21
  TRACK 22 AUDIO
    TITLE "0:"
    INDEX 01 00:32:70
  TRACK 23 AUDIO
    TITLE "28:cjc123_4671"
    INDEX 01 00:33:44
  TRACK 24 AUDIO
    TITLE "0:"
    INDEX 01 00:34:34
  TRACK 25 AUDIO
    TITLE "29:cjc123_4672"
    INDEX 01 00:34:57
  TRACK 26 AUDIO
    TITLE "0:"
    INDEX 01 00:35:68
  TRACK 27 AUDIO
    TITLE "30:cjc123_4673"
    INDEX 01 00:36:03
  TRACK 28 AUDIO
    TITLE "0:"
    INDEX 01 00:37:08
  TRACK 29 AUDIO
    TITLE "31:cjc123_4674"
    INDEX 01 00:37:56
  TRACK 30 AUDIO
    TITLE "0:"
    INDEX 01 00:41:38
  TRACK 31 AUDIO
    TITLE "32:cjc123_4675"
    INDEX 01 00:41:71
  TRACK 32 AUDIO
    TITLE "0:"
    INDEX 01 00:46:41
  TRACK 33 AUDIO
    TITLE "28:cjc123_4676"
    INDEX 01 00:47:11
  TRACK 34 AUDIO
    TITLE "0:"
    INDEX 01 00:48:22
  TRACK 35 AUDIO
    TITLE "29:cjc123_4677"
    INDEX 01 00:48:46
  TRACK 36 AUDIO
    TITLE "0:"
    INDEX 01 00:49:35
  TRACK 37 AUDIO
    TITLE "30:cjc123_4678"
    INDEX 01 00:49:47
  TRACK 38 AUDIO
    TITLE "0:"
    INDEX 01 00:50:64
  TRACK 39 AUDIO
    TITLE "31:cjc123_4679"
    INDEX 01 00:51:65
  TRACK 40 AUDIO
    TITLE "0:"
    INDEX 01 00:55:32
  TRACK 41 AUDIO
    TITLE "32:cjc123_4680"
    INDEX 01 00:56:08
  TRACK 42 AUDIO
    TITLE "0:"
    INDEX 01 00:59:59
  TRACK 43 AUDIO
    TITLE "28:cjc123_4681"
    INDEX 01 01:00:23
  TRACK 44 AUDIO
    TITLE "0:"
    INDEX 01 01:01:38
  TRACK 45 AUDIO
    TITLE "29:cjc123_4682"
    INDEX 01 01:01:44
  TRACK 46 AUDIO
    TITLE "0:"
    INDEX 01 01:02:44
  TRACK 47 AUDIO
    TITLE "30:cjc123_4683"
    INDEX 01 01:02:50
  TRACK 48 AUDIO
    TITLE "0:"
    INDEX 01 01:03:59
  TRACK 49 AUDIO
    TITLE "31:cjc123_4684"
    INDEX 01 01:04:29
  TRACK 50 AUDIO
    TITLE "0:"
    INDEX 01 01:07:49
  TRACK 51 AUDIO
    TITLE "32:cjc123_4685"
    INDEX 01 01:08:09
  TRACK 52 AUDIO
    TITLE "0:"
    INDEX 01 01:10:37
  TRACK 53 AUDIO
    TITLE "28:cjc123_4686"
    INDEX 01 01:11:09
  TRACK 54 AUDIO
    TITLE "0:"
    INDEX 01 01:12:24
  TRACK 55 AUDIO
    TITLE "29:cjc123_4687"
    INDEX 01 01:12:38
  TRACK 56 AUDIO
    TITLE "0:"
    INDEX 01 01:13:61
  TRACK 57 AUDIO
    TITLE "30:cjc123_4688"
    INDEX 01 01:13:69
  TRACK 58 AUDIO
    TITLE "0:"
    INDEX 01 01:15:01
  TRACK 59 AUDIO
    TITLE "31:cjc123_4689"
    INDEX 01 01:15:52
  TRACK 60 AUDIO
    TITLE "0:"
    INDEX 01 01:19:32
  TRACK 61 AUDIO
    TITLE "32:cjc123_4690"
    INDEX 01 01:20:00
  TRACK 62 AUDIO
    TITLE "0:"
    INDEX 01 01:22:68
  TRACK 63 AUDIO
    TITLE "28:cjc123_4691"
    INDEX 01 01:23:38
  TRACK 64 AUDIO
    TITLE "0:"
    INDEX 01 01:24:67
  TRACK 65 AUDIO
    TITLE "29:cjc123_4692"
    INDEX 01 01:25:02
  TRACK 66 AUDIO
    TITLE "0:"
    INDEX 01 01:26:07
  TRACK 67 AUDIO
    TITLE "30:cjc123_4693"
    INDEX 01 01:26:15
  TRACK 68 AUDIO
    TITLE "0:"
    INDEX 01 01:27:44
  TRACK 69 AUDIO
    TITLE "31:cjc123_4694"
    INDEX 01 01:28:18
  TRACK 70 AUDIO
    TITLE "0:"
    INDEX 01 01:31:04
  TRACK 71 AUDIO
    TITLE "32:cjc123_4695"
    INDEX 01 01:31:36
  TRACK 72 AUDIO
    TITLE "0:"
    INDEX 01 01:33:70
  TRACK 73 AUDIO
    TITLE "28:cjc123_4696"
    INDEX 01 01:34:42
  TRACK 74 AUDIO
    TITLE "0:"
    INDEX 01 01:35:41
  TRACK 75 AUDIO
    TITLE "29:cjc123_4697"
    INDEX 01 01:36:07
  TRACK 76 AUDIO
    TITLE "0:"
    INDEX 01 01:37:34
  TRACK 77 AUDIO
    TITLE "30:cjc123_4698"
    INDEX 01 01:37:46
  TRACK 78 AUDIO
    TITLE "0:"
    INDEX 01 01:38:61
  TRACK 79 AUDIO
    TITLE "31:cjc123_4699"
    INDEX 01 01:39:29
  TRACK 80 AUDIO
    TITLE "0:"
    INDEX 01 01:43:19
  TRACK 81 AUDIO
    TITLE "32:cjc123_4700"
    INDEX 01 01:43:60
  TRACK 82 AUDIO
    TITLE "0:"
    INDEX 01 01:47:01
  TRACK 83 AUDIO
    TITLE "28:cjc123_4701"
    INDEX 01 01:47:46
  TRACK 84 AUDIO
    TITLE "0:"
    INDEX 01 01:48:61
  TRACK 85 AUDIO
    TITLE "29:cjc123_4702"
    INDEX 01 01:49:08
  TRACK 86 AUDIO
    TITLE "0:"
    INDEX 01 01:50:17
  TRACK 87 AUDIO
    TITLE "30:cjc123_4703"
    INDEX 01 01:50:21
  TRACK 88 AUDIO
    TITLE "0:"
    INDEX 01 01:51:40
  TRACK 89 AUDIO
    TITLE "31:cjc123_4704"
    INDEX 01 01:52:32
  TRACK 90 AUDIO
    TITLE "0:"
    INDEX 01 01:55:40
  TRACK 91 AUDIO
    TITLE "32:cjc123_4705"
    INDEX 01 01:56:02
  TRACK 92 AUDIO
    TITLE "0:"
    INDEX 01 01:59:28
  TRACK 93 AUDIO
    TITLE "28:cjc123_4706"
    INDEX 01 01:59:69
  TRACK 94 AUDIO
    TITLE "0:"
    INDEX 01 02:01:01
  TRACK 95 AUDIO
    TITLE "29:cjc123_4707"
    INDEX 01 02:01:19
  TRACK 96 AUDIO
    TITLE "0:"
    INDEX 01 02:02:38
  TRACK 97 AUDIO
    TITLE "30:cjc123_4708"
    INDEX 01 02:02:44
  TRACK 98 AUDIO
    TITLE "0:"
    INDEX 01 02:03:49
  TRACK 99 AUDIO
    TITLE "31:cjc123_4709"
    INDEX 01 02:04:23
  TRACK 100 AUDIO
    TITLE "0:"
    INDEX 01 02:08:13
  TRACK 101 AUDIO
    TITLE "32:cjc123_4710"
    INDEX 01 02:08:54
  TRACK 102 AUDIO
    TITLE "0:"
    INDEX 01 02:11:64
  TRACK 103 AUDIO
    TITLE "28:cjc123_4711"
    INDEX 01 02:12:40
  TRACK 104 AUDIO
    TITLE "0:"
    INDEX 01 02:13:59
  TRACK 105 AUDIO
    TITLE "29:cjc123_4712"
    INDEX 01 02:13:73
  TRACK 106 AUDIO
    TITLE "0:"
    INDEX 01 02:14:73
  TRACK 107 AUDIO
    TITLE "30:cjc123_4713"
    INDEX 01 02:15:05
  TRACK 108 AUDIO
    TITLE "0:"
    INDEX 01 02:16:21
  TRACK 109 AUDIO
    TITLE "31:cjc123_4714"
    INDEX 01 02:16:68
  TRACK 110 AUDIO
    TITLE "0:"
    INDEX 01 02:20:28
  TRACK 111 AUDIO
    TITLE "32:cjc123_4715"
    INDEX 01 02:20:60
  TRACK 112 AUDIO
    TITLE "0:"
    INDEX 01 02:24:10
  TRACK 113 AUDIO
    TITLE "28:cjc123_4716"
    INDEX 01 02:24:53
  TRACK 114 AUDIO
    TITLE "0:"
    INDEX 01 02:25:43
  TRACK 115 AUDIO
    TITLE "29:cjc123_4717"
    INDEX 01 02:25:61
  TRACK 116 AUDIO
    TITLE "0:"
    INDEX 01 02:27:22
  TRACK 117 AUDIO
    TITLE "30:cjc123_4718"
    INDEX 01 02:27:32
  TRACK 118 AUDIO
    TITLE "0:"
    INDEX 01 02:28:28
  TRACK 119 AUDIO
    TITLE "31:cjc123_4719"
    INDEX 01 02:29:04
  TRACK 120 AUDIO
    TITLE "0:"
    INDEX 01 02:32:25
  TRACK 121 AUDIO
    TITLE "32:cjc123_4720"
    INDEX 01 02:32:57
  TRACK 122 AUDIO
    TITLE "0:"
    INDEX 01 02:36:49
  TRACK 123 AUDIO
    TITLE "28:cjc123_4721"
    INDEX 01 02:37:19
  TRACK 124 AUDIO
    TITLE "0:"
    INDEX 01 02:38:22
  TRACK 125 AUDIO
    TITLE "29:cjc123_4722"
    INDEX 01 02:38:32
  TRACK 126 AUDIO
    TITLE "0:"
    INDEX 01 02:39:43
  TRACK 127 AUDIO
    TITLE "30:cjc123_4723"
    INDEX 01 02:39:47
  TRACK 128 AUDIO
    TITLE "0:"
    INDEX 01 02:40:56
  TRACK 129 AUDIO
    TITLE "31:cjc123_4724"
    INDEX 01 02:41:24
  TRACK 130 AUDIO
    TITLE "0:"
    INDEX 01 02:44:31
  TRACK 131 AUDIO
    TITLE "32:cjc123_4725"
    INDEX 01 02:44:62
  TRACK 132 AUDIO
    TITLE "0:"
    INDEX 01 02:48:17
  TRACK 133 AUDIO
    TITLE "28:cjc123_4726"
    INDEX 01 02:48:60
  TRACK 134 AUDIO
    TITLE "0:"
    INDEX 01 02:49:73
  TRACK 135 AUDIO
    TITLE "29:cjc123_4727"
    INDEX 01 02:50:10
  TRACK 136 AUDIO
    TITLE "0:"
    INDEX 01 02:51:52
  TRACK 137 AUDIO
    TITLE "30:cjc123_4728"
    INDEX 01 02:51:64
  TRACK 138 AUDIO
    TITLE "0:"
    INDEX 01 02:53:02
  TRACK 139 AUDIO
    TITLE "31:cjc123_4729"
    INDEX 01 02:53:51
  TRACK 140 AUDIO
    TITLE "0:"
    INDEX 01 02:56:48
  TRACK 141 AUDIO
    TITLE "32:cjc123_4730"
    INDEX 01 02:57:18
  TRACK 142 AUDIO
    TITLE "0:"
    INDEX 01 03:00:41
  TRACK 143 AUDIO
    TITLE "28:cjc123_4731"
    INDEX 01 03:01:11
  TRACK 144 AUDIO
    TITLE "0:"
    INDEX 01 03:02:29
  TRACK 145 AUDIO
    TITLE "29:cjc123_4732"
    INDEX 01 03:02:38
  TRACK 146 AUDIO
    TITLE "0:"
    INDEX 01 03:03:53
  TRACK 147 AUDIO
    TITLE "30:cjc123_4733"
    INDEX 01 03:03:63
  TRACK 148 AUDIO
    TITLE "0:"
    INDEX 01 03:05:07
  TRACK 149 AUDIO
    TITLE "31:cjc123_4734"
    INDEX 01 03:05:58
  TRACK 150 AUDIO
    TITLE "0:"
    INDEX 01 03:08:25
  TRACK 151 AUDIO
    TITLE "32:cjc123_4735"
    INDEX 01 03:08:59
  TRACK 152 AUDIO
    TITLE "0:"
    INDEX 01 03:11:67
